PathFileType	4	(X/Y/Z)	../Python\running\Running08\task.trc
DataRate	CameraRate	NumFrames	NumMarkers	Units	OrigDataRate	OrigDataStartFrame	OrigNumFrames
200.000000	200.000000	4	30	mm	200.000000	76	204
Frame#	Time	C7			RBAK			CLAV			STRN			RASI			RPSI			LASI			PE01			RTH2			RTH3			RTB2			RD5M			RTOE			LTH3			LTB2			LTB3			LHEE			LTOE			LD5M			RTH1			RHEE			LPSI			PE02			RTB3			RTB1			PE03			T10			LTH2			LTH1			LTB1			
		X1	Y1	Z1	X2	Y2	Z2	X3	Y3	Z3	X4	Y4	Z4	X5	Y5	Z5	X6	Y6	Z6	X7	Y7	Z7	X8	Y8	Z8	X9	Y9	Z9	X10	Y10	Z10	X11	Y11	Z11	X12	Y12	Z12	X13	Y13	Z13	X14	Y14	Z14	X15	Y15	Z15	X16	Y16	Z16	X17	Y17	Z17	X18	Y18	Z18	X19	Y19	Z19	X20	Y20	Z20	X21	Y21	Z21	X22	Y22	Z22	X23	Y23	Z23	X24	Y24	Z24	X25	Y25	Z25	X26	Y26	Z26	X27	Y27	Z27	X28	Y28	Z28	X29	Y29	Z29	X30	Y30	Z30	

77	0.38	-481.8132324218752	1363.449584960938	146.0608825683594	-549.1008300781252	1287.599365234375	230.348846435547	-365.9350585937501	1267.414306640625	181.8507537841797	-325.7436828613282	1074.293701171875	191.6814727783204	-389.7569580078127	879.3927612304692	282.3563232421876	-577.7230224609377	947.3073120117192	225.0857391357423	-394.552429199219	859.1744995117192	56.94789123535159	-561.992614746094	978.486938476563	178.1456298828126	-304.926971435547	561.834655761719	304.1002197265626	-307.1097717285157	622.2521972656252	316.9332275390626	-333.8637695312501	311.3961791992189	326.8205566406251	-283.4813842773439	53.66538238525393	341.8119201660157	-245.9405517578126	55.52362823486331	294.6991577148439	-513.347351074219	583.468200683594	51.21306228637698	-776.9428100585942	278.2315979003907	91.6845626831055	-727.922546386719	284.0549621582032	90.61580657958987	-882.0714721679692	158.1708984375001	150.2302398681641	-770.0603637695317	28.31896209716798	167.2791137695313	-801.1289062500005	29.08449172973634	114.4002685546876	-357.2638549804689	618.8633422851565	322.9813842773439	-419.428894042969	88.76453399658206	258.5335388183595	-579.4970703125002	944.4984741210942	138.6522979736329	-595.8975830078127	928.5449829101567	208.3859863281251	-308.7867126464845	269.5578613281251	314.6470336914064	-285.3741455078126	345.3392028808595	313.9815673828126	-596.6235961914065	923.674194335938	157.7597656250001	-539.5415649414065	1075.098510742188	153.1502532958985	-594.094421386719	578.6873168945315	55.23329162597659	-548.3632812500002	619.2116699218752	39.71958923339845	-734.8702392578127	344.361541748047	76.81919860839847	
78	0.385	-466.5854187011721	1366.504760742188	146.9305877685547	-534.5112304687502	1290.136108398438	229.3538513183595	-350.9742431640626	1271.414794921875	183.7452697753907	-309.8895568847657	1078.321655273438	192.8601379394532	-373.511932373047	883.1577148437505	281.6579895019532	-560.807312011719	950.9817504882817	224.1860809326173	-377.7587890625001	861.487670898438	56.90415191650393	-544.716003417969	981.9982910156255	176.9586791992188	-291.0509643554689	564.152282714844	303.1664123535157	-292.5484924316407	624.668151855469	315.304412841797	-310.0709838867189	311.2082824707032	327.1586303710939	-247.831512451172	53.28632354736331	341.0833129882814	-210.5475006103517	56.67093658447268	293.8603820800782	-501.9804992675784	586.9685668945315	51.20204544067386	-768.5495605468755	284.4178466796876	92.70565032958987	-719.4692382812502	290.3338623046876	90.73543548583987	-871.4393920898442	165.8537597656251	151.8441009521485	-767.3930664062502	29.61019897460939	167.8987731933594	-797.5454711914067	32.37023162841798	115.6343612670899	-342.7499084472657	621.879089355469	321.5272521972657	-384.9873962402346	86.0142517089844	258.6701965332032	-562.4873657226565	948.0027465820317	137.6421661376954	-578.840026855469	932.4744262695317	207.7342834472657	-282.937225341797	270.8550109863282	314.8772277832032	-263.5102539062501	347.5400390625001	313.9228515625001	-579.7998657226565	927.1624145507817	157.1589660644532	-523.2158203125002	1078.063842773438	151.3036193847657	-582.8887329101565	584.3284912109377	56.19472885131839	-536.1632080078127	623.7090454101565	40.20383453369142	-726.9294433593752	350.9476013183595	78.12937164306643	
79	0.39	-451.308288574219	1369.384521484375	147.8239898681641	-519.815612792969	1292.495483398438	228.430145263672	-336.0016174316407	1275.181640625	185.5728149414063	-294.0241088867189	1082.226440429688	193.9776611328126	-357.2958984375001	886.7064819335942	280.9786071777345	-543.9199218750002	954.5784301757817	223.2944946289064	-361.015350341797	863.5998535156255	56.92790222167972	-527.4418945312502	985.4465332031255	175.8238525390626	-277.4351501464845	566.107849121094	302.538299560547	-278.2451782226564	626.7478027343752	313.8502807617189	-286.660125732422	311.1189880371095	327.4038696289064	-212.7128906250001	53.42540359497073	339.9699707031251	-175.7161712646485	58.38450622558597	292.6702880859376	-490.4775695800784	590.521179199219	50.89347457885745	-759.570007324219	290.3805236816407	93.74793243408206	-710.4437255859377	296.3292236328126	91.00415802001956	-860.6760253906255	173.3713684082032	153.4608154296876	-763.986022949219	31.51877403259279	168.6327362060547	-793.1833496093755	36.18595504760744	116.8998336791993	-328.4803771972657	624.5613403320315	320.3142395019532	-350.9943847656251	84.03161621093753	258.4606933593751	-545.4647216796877	951.461791992188	136.6530761718751	-561.7717285156252	936.3178100585942	207.0577697753907	-257.547332763672	272.3279113769532	315.0226135253907	-242.0916442871095	349.7042846679689	313.8641052246095	-562.9411621093752	930.608032226563	156.5393066406251	-506.8939208984377	1080.915161132813	149.5814056396485	-571.3984985351565	589.8624267578127	57.14651489257815	-523.872497558594	628.1405029296877	40.596492767334	-718.270446777344	357.2116699218751	79.44316864013675	
80	0.395	-435.9851074218752	1372.071655273438	148.7386016845704	-505.0215759277346	1294.661010742188	227.5809478759767	-321.0117187500001	1278.691772460938	187.3328704833985	-278.1487121582032	1085.99658203125	195.0294036865236	-341.1156616210939	890.021362304688	280.3305053710939	-527.088806152344	958.088012695313	222.4116210937501	-344.3338623046876	865.5032348632817	57.02361679077151	-510.1993713378909	988.8169555664067	174.7370300292969	-264.0274353027345	567.7199707031252	302.2372436523439	-264.1641540527345	628.4985351562502	312.649871826172	-263.6870117187501	311.132049560547	327.5479431152345	-178.2281036376954	54.07921981811526	338.4696350097657	-141.5535430908204	60.67774963378909	291.115447998047	-478.7807312011721	594.0820312500002	50.33011245727542	-750.0397949218752	296.0997009277345	94.80937957763675	-700.876403808594	301.9885559082032	91.44181823730472	-849.9350585937505	180.7179260253907	155.0579681396485	-759.7847900390627	34.09807586669923	169.4619293212891	-788.0446777343755	40.53983306884767	118.1520767211915	-314.421112060547	626.9018554687502	319.3955078125001	-317.5921325683595	82.77729034423831	257.9251403808595	-528.4458007812502	954.8546752929692	135.6826477050782	-544.7158813476565	940.0568847656255	206.3552551269532	-232.6864471435548	273.9570922851564	315.0942993164064	-221.1422271728517	351.8245239257814	313.8197326660157	-546.062438964844	933.9877929687505	155.8971252441407	-490.5871582031252	1083.63623046875	147.9947662353516	-559.5676269531252	595.1773071289065	58.09044265747073	-511.4582519531252	632.436706542969	40.9118003845215	-708.8808593750002	363.0924072265626	80.73584747314456	
